<svg xmlns="http://www.w3.org/2000/svg" width="14.5" height="9.671" viewBox="0 0 14.5 9.671">
  <path id="Icon_ionic-ios-arrow-round-back" data-name="Icon ionic-ios-arrow-round-back" d="M17.129,11.437a.658.658,0,0,0-.005.927l3.057,3.067H8.532a.655.655,0,0,0,0,1.309H20.181l-3.062,3.067a.663.663,0,0,0,.005.927.652.652,0,0,0,.922-.005l4.15-4.18h0a.735.735,0,0,0,.136-.206.625.625,0,0,0,.05-.252.656.656,0,0,0-.186-.458l-4.15-4.18A.642.642,0,0,0,17.129,11.437Z" transform="translate(-7.882 -11.252)" fill="#6f78c1"/>
</svg>
