<svg xmlns="http://www.w3.org/2000/svg" width="18.076" height="20.658" viewBox="0 0 18.076 20.658">
  <path id="Icon_awesome-calendar-alt" data-name="Icon awesome-calendar-alt" d="M0,18.721a1.937,1.937,0,0,0,1.937,1.937h14.2a1.937,1.937,0,0,0,1.937-1.937V7.747H0Zm12.911-7.908a.486.486,0,0,1,.484-.484h1.614a.486.486,0,0,1,.484.484v1.614a.486.486,0,0,1-.484.484H13.4a.486.486,0,0,1-.484-.484Zm0,5.164a.486.486,0,0,1,.484-.484h1.614a.486.486,0,0,1,.484.484v1.614a.486.486,0,0,1-.484.484H13.4a.486.486,0,0,1-.484-.484ZM7.747,10.813a.486.486,0,0,1,.484-.484H9.845a.486.486,0,0,1,.484.484v1.614a.486.486,0,0,1-.484.484H8.231a.486.486,0,0,1-.484-.484Zm0,5.164a.486.486,0,0,1,.484-.484H9.845a.486.486,0,0,1,.484.484v1.614a.486.486,0,0,1-.484.484H8.231a.486.486,0,0,1-.484-.484ZM2.582,10.813a.486.486,0,0,1,.484-.484H4.68a.486.486,0,0,1,.484.484v1.614a.486.486,0,0,1-.484.484H3.066a.486.486,0,0,1-.484-.484Zm0,5.164a.486.486,0,0,1,.484-.484H4.68a.486.486,0,0,1,.484.484v1.614a.486.486,0,0,1-.484.484H3.066a.486.486,0,0,1-.484-.484Zm13.557-13.4H14.2V.646A.647.647,0,0,0,13.557,0H12.266a.647.647,0,0,0-.646.646V2.582H6.456V.646A.647.647,0,0,0,5.81,0H4.519a.647.647,0,0,0-.646.646V2.582H1.937A1.937,1.937,0,0,0,0,4.519V6.456H18.076V4.519A1.937,1.937,0,0,0,16.139,2.582Z" fill="#b6bced"/>
</svg>
