<svg xmlns="http://www.w3.org/2000/svg" width="19.57" height="20.658" viewBox="0 0 19.57 20.658">
  <g id="bx-user" transform="translate(0)">
    <path id="Path_5" data-name="Path 5" d="M21.506,10a4,4,0,1,1-4-4A4,4,0,0,1,21.506,10Z" transform="translate(-7.718 -3.331)" fill="none"/>
    <path id="Path_6" data-name="Path 6" d="M14.285,3a5.436,5.436,0,1,0,5.436,5.436A5.442,5.442,0,0,0,14.285,3Zm0,8.7a3.262,3.262,0,1,1,3.262-3.262A3.266,3.266,0,0,1,14.285,11.7Zm9.785,11.96V22.57A7.621,7.621,0,0,0,16.46,14.96H12.111A7.62,7.62,0,0,0,4.5,22.57v1.087H6.674V22.57a5.442,5.442,0,0,1,5.436-5.436H16.46A5.442,5.442,0,0,1,21.9,22.57v1.087Z" transform="translate(-4.5 -3)" fill="#b6bced"/>
  </g>
</svg>
