<svg xmlns="http://www.w3.org/2000/svg" width="20.785" height="20.658" viewBox="0 0 20.785 20.658">
  <g id="b505320b084d91f06e18509d1c95860d" transform="translate(0)">
    <g id="Group_16471" data-name="Group 16471" transform="translate(0 0)">
      <path id="Path_12838" data-name="Path 12838" d="M391.944-497.958a2.45,2.45,0,0,0-1.025.478,2.092,2.092,0,0,0-.432,2.557l.127.224-.1.157c-.051.085-.318.5-.593.906a5.89,5.89,0,0,0-.525.9.743.743,0,0,0,.724.868c.339,0,.44-.1,1.109-1.1l.618-.932.258.025a2.11,2.11,0,0,0,1.634-.614,2.049,2.049,0,0,0,.351-2.409,2.163,2.163,0,0,0-1.495-1.067A1.492,1.492,0,0,0,391.944-497.958Z" transform="translate(-381.341 497.997)" fill="#fd86ac"/>
      <path id="Path_12839" data-name="Path 12839" d="M12.135-372.427a2.539,2.539,0,0,0-2.024,1.66l-.093.28L10-363.566c-.013,7.651-.025,7.231.254,7.8a3,3,0,0,0,1.033,1.042c.55.288-.119.267,9.1.267,9.2,0,8.531.021,9.094-.263a2.848,2.848,0,0,0,1.037-1.054c.28-.576.263-.089.263-7.651,0-4.877-.013-6.931-.047-7.092a2.447,2.447,0,0,0-2.028-1.892c-.22-.034-.991-.047-2.473-.038l-2.155.013-.055.233a4.356,4.356,0,0,1-.258.635,2.371,2.371,0,0,1-.589.792l-.39.394H25.6c2.981,0,3.01,0,3.082.19.013.038.025,3.086.025,6.77v6.7l-.11.1-.11.1h-16.2l-.11-.1-.11-.1v-6.715c0-5.212.013-6.732.055-6.783.123-.161.182-.165,2.439-.165h2.2l.1-.224a9.357,9.357,0,0,1,.533-.868c.406-.61.466-.745.4-.915a12.293,12.293,0,0,0-2.786-.063C13.5-372.449,12.206-372.436,12.135-372.427Z" transform="translate(-10 375.117)" fill="#fd86ac"/>
      <path id="Path_12840" data-name="Path 12840" d="M162.43-154.472c-.173.08-.224.136-1.27,1.507-.5.665-.953,1.241-.991,1.283-.072.076-.1.063-.6-.284-.61-.423-.771-.47-1.075-.322a.665.665,0,0,0-.326.9c.08.165.195.258.906.754a10.176,10.176,0,0,0,.982.627.6.6,0,0,0,.656-.157c.195-.186,2.5-3.2,2.6-3.4a.72.72,0,0,0-.063-.677A.719.719,0,0,0,162.43-154.472Z" transform="translate(-154.96 161.805)" fill="#fd86ac"/>
      <path id="Path_12841" data-name="Path 12841" d="M412.348-53.117a.692.692,0,0,0-.059,1.135l.148.114,3.772.013c3.612.008,3.777,0,3.921-.068a.733.733,0,0,0,.36-.521.747.747,0,0,0-.313-.66l-.144-.1H416.26C412.573-53.2,412.484-53.2,412.348-53.117Z" transform="translate(-403.494 62.635)" fill="#fd86ac"/>
      <path id="Path_12842" data-name="Path 12842" d="M162.375,82.89a7.685,7.685,0,0,0-1.219,1.461A8.935,8.935,0,0,1,160.05,85.7c-.034-.021-.275-.182-.542-.368-.572-.39-.745-.436-1.046-.284a.675.675,0,0,0-.165,1.092,15.4,15.4,0,0,0,1.748,1.185.609.609,0,0,0,.555-.068c.131-.08,2.549-3.2,2.7-3.476a.591.591,0,0,0,.059-.351A.669.669,0,0,0,162.375,82.89Z" transform="translate(-154.947 -70.493)" fill="#fd86ac"/>
      <path id="Path_12843" data-name="Path 12843" d="M412.49,182.585a.639.639,0,0,0-.419.4.656.656,0,0,0,.309.851c.157.08.267.085,3.87.085s3.713,0,3.87-.085a.685.685,0,0,0-.191-1.27c-.093-.025-1.732-.038-3.722-.038A36.5,36.5,0,0,0,412.49,182.585Z" transform="translate(-403.487 -168.097)" fill="#fd86ac"/>
    </g>
  </g>
</svg>
